<svg width="24" height="24" viewBox="0 0 24 24" fill="none" xmlns="http://www.w3.org/2000/svg">
<path d="M9.12884 2C8.05625 2 7.17986 2.87639 7.17986 3.94899C7.17986 5.02158 8.05625 5.89797 9.12884 5.89797H11.0778V3.94899C11.0778 2.87639 10.2145 2 9.12884 2ZM9.12884 7.19294H3.94899C2.87639 7.19294 2 8.06933 2 9.14192C2 10.2145 2.87639 11.0909 3.94899 11.0909H9.14192C10.2145 11.0909 11.0909 10.2145 11.0909 9.14192C11.0778 8.06933 10.2145 7.19294 9.12884 7.19294Z" fill="white"/>
<path d="M22 9.14461C22 8.07357 21.1236 7.19846 20.051 7.19846C18.9784 7.19846 18.102 8.07357 18.102 9.14461V11.0908H20.051C21.1236 11.1038 22 10.2287 22 9.14461ZM16.8071 9.14461V3.94615C16.8071 2.87512 15.9307 2 14.8581 2C13.7855 2 12.9091 2.87512 12.9091 3.94615V9.14461C12.9091 10.2156 13.7855 11.0908 14.8581 11.0908C15.9438 11.1038 16.8071 10.2287 16.8071 9.14461Z" fill="white"/>
<path d="M14.8581 22C15.9307 22 16.8071 21.1249 16.8071 20.0538C16.8071 18.9828 15.9307 18.1076 14.8581 18.1076H12.9091V20.0538C12.9091 21.1249 13.7855 22 14.8581 22ZM14.8581 16.8015H20.051C21.1236 16.8015 22 15.9263 22 14.8553C22 13.7842 21.1236 12.9091 20.051 12.9091H14.8581C13.7855 12.9091 12.9091 13.7842 12.9091 14.8553C12.9091 15.9263 13.7855 16.8015 14.8581 16.8015Z" fill="white"/>
<path d="M2 14.8553C2 15.9263 2.87639 16.8015 3.94899 16.8015C5.02158 16.8015 5.89797 15.9263 5.89797 14.8553V12.9091H3.94899C2.86331 12.9091 2 13.7842 2 14.8553ZM7.19294 14.8553V20.0538C7.19294 21.1249 8.06933 22 9.14192 22C10.2145 22 11.0909 21.1249 11.0909 20.0538V14.8553C11.0909 13.7842 10.2145 12.9091 9.14192 12.9091C8.05625 12.9091 7.19294 13.7842 7.19294 14.8553Z" fill="white"/>
</svg>
