<svg width="174" height="27" viewBox="0 0 174 27" fill="none" xmlns="http://www.w3.org/2000/svg">
<path d="M167.432 5.10496H168.284V7.39831H168.943V5.10496H169.8V4.54962H167.432V5.10496Z" fill="#0A1930"/>
<path d="M172.177 4.54962L171.827 5.73591C171.8 5.82531 171.773 5.9278 171.747 6.04193C171.722 6.15678 171.701 6.26799 171.68 6.37484C171.657 6.49696 171.635 6.62199 171.615 6.74992H171.603C171.582 6.62271 171.559 6.49769 171.534 6.37484C171.515 6.26799 171.49 6.15678 171.465 6.04193C171.439 5.92708 171.414 5.82531 171.389 5.73591L171.03 4.54962H170.147V7.39831H170.738V6.12334C170.738 6.03393 170.735 5.93071 170.73 5.81368C170.725 5.69593 170.719 5.58398 170.715 5.4764C170.707 5.35429 170.7 5.22781 170.692 5.09697H170.7C170.722 5.21472 170.747 5.3303 170.772 5.44515C170.793 5.54255 170.817 5.64504 170.844 5.75335C170.871 5.86166 170.897 5.95833 170.923 6.04265L171.336 7.39758H171.877L172.285 6.04265C172.311 5.95833 172.337 5.86166 172.365 5.75335C172.391 5.64504 172.415 5.54255 172.436 5.44515C172.462 5.3303 172.486 5.214 172.509 5.09697H172.517C172.509 5.22708 172.502 5.35283 172.494 5.4764C172.489 5.58398 172.484 5.69593 172.478 5.81368C172.474 5.93071 172.471 6.03393 172.471 6.12334V7.39831H173.077V4.54889L172.177 4.54962Z" fill="#0A1930"/>
<path d="M17.5595 14.0043C16.7679 13.4904 15.8811 13.1037 14.8991 12.8464C13.9164 12.5898 12.9343 12.379 11.9516 12.2169C11.2152 12.0817 10.5189 11.9596 9.86465 11.8505C9.20972 11.7422 8.63621 11.6063 8.14555 11.4435C7.6549 11.2806 7.27183 11.0713 6.99997 10.8132C6.72666 10.5567 6.59 10.2237 6.59 9.8174C6.59 9.11305 6.88294 8.57151 7.46954 8.19207C8.05542 7.81264 8.84119 7.62292 9.82322 7.62292C11.8701 7.62292 13.0986 8.39488 13.5071 9.9388H19.4829C19.1827 8.04306 18.2552 6.50496 16.6996 5.32594C15.1448 4.14765 12.8515 3.55814 9.82322 3.55814C8.54026 3.55814 7.34016 3.69988 6.22074 3.98482C5.10206 4.26976 4.13456 4.69645 3.31608 5.26561C2.4976 5.83476 1.84921 6.53912 1.37165 7.37868C0.894077 8.21897 0.65493 9.19446 0.65493 10.3044C0.65493 11.5779 0.880266 12.6072 1.33021 13.393C1.78089 14.1795 2.3733 14.8155 3.1111 15.304C3.84744 15.7917 4.67973 16.1574 5.60725 16.4016C6.53476 16.6458 7.4899 16.8624 8.47193 17.0514C9.23589 17.1874 9.95261 17.316 10.6213 17.4381C11.2894 17.5595 11.8832 17.7165 12.4022 17.9063C12.9205 18.096 13.3297 18.3395 13.6307 18.6375C13.9309 18.9363 14.0814 19.3288 14.0814 19.8158C14.0814 20.6023 13.7673 21.2114 13.14 21.6454C12.512 22.0786 11.6259 22.2952 10.4803 22.2952C9.22499 22.2952 8.22188 22.0241 7.47172 21.4826C6.72085 20.941 6.24982 20.1553 6.0601 19.1253H0C0.0821388 20.2091 0.37435 21.2049 0.87954 22.1121C1.384 23.0207 2.07964 23.7984 2.96717 24.449C3.85326 25.0989 4.92469 25.6011 6.18004 25.953C7.43465 26.3048 8.85427 26.4814 10.4367 26.4814C11.8549 26.4814 13.1655 26.3324 14.3656 26.0344C15.5664 25.7363 16.6029 25.29 17.4767 24.6933C18.3497 24.0979 19.0315 23.3521 19.5236 22.4581C20.015 21.564 20.2599 20.5347 20.2599 19.3695C20.2599 18.0153 20.007 16.9104 19.5025 16.057C18.9981 15.2037 18.3511 14.5197 17.5595 14.0043Z" fill="#0A1930"/>
<path d="M59.2272 10.814C58.6544 9.05271 57.7538 7.57712 56.5253 6.38429C55.5702 5.51784 54.4718 4.83965 53.2303 4.3519C51.9881 3.86343 50.591 3.62065 49.0354 3.62065C47.3708 3.62065 45.856 3.91213 44.4923 4.49365C43.128 5.07661 41.9548 5.88201 40.972 6.91129C39.99 7.9413 39.2253 9.15375 38.6794 10.5487C38.1328 11.945 37.8609 13.454 37.8609 15.0801C37.8609 16.7062 38.1269 18.2094 38.659 19.5912C39.1911 20.973 39.9544 22.1789 40.9517 23.2082C41.9475 24.2382 43.1549 25.0443 44.5738 25.6259C45.9919 26.2081 47.5889 26.4989 49.3625 26.4989C50.7545 26.4989 52.0229 26.3288 53.1693 25.9908C54.3148 25.6527 55.3187 25.1781 56.1771 24.5682C57.037 23.9584 57.7596 23.2409 58.3462 22.4144C58.9321 21.588 59.3616 20.7012 59.6357 19.7526H53.4135C53.0588 20.43 52.5608 20.9512 51.9197 21.3168C51.2786 21.6832 50.4529 21.8656 49.4432 21.8656C47.8884 21.8656 46.673 21.4055 45.8 20.4838C44.9263 19.5636 44.3804 18.2893 44.1623 16.6633H60.0442C60.0725 14.5262 59.8 12.5752 59.2272 10.814ZM44.2052 12.9685C44.4233 11.4791 44.9139 10.3001 45.6779 9.43288C46.4419 8.56642 47.5606 8.13174 49.0347 8.13174C50.3169 8.13174 51.3535 8.55843 52.1458 9.4118C52.9366 10.2652 53.3873 11.4507 53.4964 12.9678L44.2052 12.9685Z" fill="#0A1930"/>
<path d="M163.78 22.4777V11.3824C163.78 9.91917 163.514 8.63839 162.982 7.54223C162.449 6.44463 161.61 5.5709 160.464 4.92106C159.7 4.46094 158.812 4.12802 157.803 3.92522C156.794 3.72241 155.593 3.62065 154.202 3.62065C152.591 3.62065 151.186 3.81764 149.985 4.21016C148.784 4.60341 147.788 5.13186 146.998 5.79478C146.206 6.45916 145.607 7.22458 145.197 8.09104C144.787 8.95822 144.569 9.85229 144.541 10.7733H150.476C150.558 9.90681 150.906 9.21554 151.52 8.7009C152.134 8.18626 153.055 7.92894 154.283 7.92894C155.402 7.92894 156.22 8.16663 156.738 8.64057C157.257 9.11595 157.516 9.74471 157.516 10.5305C157.516 11.3432 157.086 11.9399 156.227 12.3186C155.368 12.6988 153.969 13.0237 152.032 13.2934C150.832 13.4293 149.712 13.6256 148.676 13.8829C147.639 14.1402 146.738 14.5124 145.974 15.0001C145.21 15.4879 144.604 16.1246 144.154 16.9097C143.704 17.6962 143.478 18.6848 143.478 19.8769C143.478 20.933 143.662 21.8751 144.032 22.7008C144.4 23.528 144.918 24.212 145.586 24.7536C146.254 25.2958 147.046 25.7087 147.96 25.9929C148.875 26.2779 149.864 26.4196 150.928 26.4196C152.62 26.4196 153.964 26.1347 154.96 25.5662C155.955 24.9971 156.808 24.212 157.518 23.2089H157.6C157.653 23.8326 157.749 24.3669 157.886 24.8146C158.023 25.2617 158.172 25.6077 158.337 25.8505H164.599V25.4848C164.052 25.1337 163.78 24.1306 163.78 22.4777ZM157.681 18.088C157.681 19.2808 157.251 20.2694 156.392 21.0552C155.533 21.8417 154.38 22.2334 152.934 22.2334C152.06 22.2334 151.31 22.0437 150.682 21.6643C150.054 21.2849 149.741 20.6219 149.741 19.6726C149.741 18.7247 150.082 18.0335 150.764 17.6002C151.446 17.1677 152.497 16.8014 153.915 16.5026C154.624 16.3398 155.313 16.1712 155.982 15.9945C156.65 15.8179 157.217 15.5817 157.681 15.2829V18.088Z" fill="#0A1930"/>
<path d="M35.6075 9.38563V5.12459H31.4534V0H25.3714V5.12459H22.0939V9.38636H25.3714V20.6248C25.3714 24.497 27.3966 26.2234 31.9382 26.2234C33.5759 26.2234 34.7593 26.0896 35.3807 25.9559V21.5349C35.3364 21.5364 35.2899 21.5385 35.2412 21.54C34.9308 21.5523 34.5376 21.5676 34.1763 21.5676C32.9079 21.5676 31.4526 21.2936 31.4526 19.1572V9.38563H35.6075Z" fill="#0A1930"/>
<path d="M92.058 3.8787C87.6908 3.8787 84.1378 7.43174 84.1378 11.7989V18.1461C84.1378 19.5287 83.0125 20.6539 81.63 20.6539C80.2474 20.6539 79.1229 19.5287 79.1229 18.1461V11.7989C79.1229 7.43174 75.5699 3.8787 71.2027 3.8787C66.8356 3.8787 63.2825 7.43174 63.2825 11.7989V25.8505H68.6949V11.7989C68.6949 10.4164 69.8202 9.29186 71.2027 9.29186C72.5853 9.29186 73.7105 10.4164 73.7105 11.7989V18.1461C73.7105 22.5133 77.2636 26.0663 81.6307 26.0663C85.9979 26.0663 89.5509 22.5133 89.5509 18.1461V11.7989C89.5509 10.4164 90.6762 9.29186 92.0587 9.29186C93.4413 9.29186 94.5658 10.4164 94.5658 11.7989V26.022H99.9782V11.7989C99.9782 7.43174 96.4252 3.8787 92.058 3.8787Z" fill="#0A1930"/>
<path d="M132.35 3.8787C127.982 3.8787 124.429 7.43174 124.429 11.7989V18.1461C124.429 19.5287 123.304 20.6539 121.922 20.6539C120.539 20.6539 119.415 19.5287 119.415 18.1461V11.7989C119.415 7.43174 115.862 3.8787 111.494 3.8787C107.127 3.8787 103.574 7.43174 103.574 11.7989V25.8505H108.987V11.7989C108.987 10.4164 110.112 9.29186 111.494 9.29186C112.877 9.29186 114.002 10.4164 114.002 11.7989V18.1461C114.002 22.5133 117.555 26.0663 121.922 26.0663C126.29 26.0663 129.843 22.5133 129.843 18.1461V11.7989C129.843 10.4164 130.968 9.29186 132.35 9.29186C133.733 9.29186 134.857 10.4164 134.857 11.7989V26.022H140.27V11.7989C140.27 7.43174 136.717 3.8787 132.35 3.8787Z" fill="#0A1930"/>
</svg>
