<svg width="96" height="14" viewBox="0 0 96 14" fill="none" xmlns="http://www.w3.org/2000/svg">
<path d="M11.5168 3.66282H5.90896C5.06699 3.66282 4.73338 4.07901 4.73338 4.71099V9.22737C4.73338 9.85936 5.06699 10.3372 5.90896 10.3372H11.5168L11.5486 13.3738C11.5486 13.3738 7.79942 13.6667 4.68572 13.6667C2.00095 13.6667 0.666504 11.9557 0.666504 10.0752V3.87862C0.666504 1.98267 2.00095 0.333344 4.68572 0.333344C7.89474 0.333344 11.5486 0.564557 11.5486 0.564557L11.5168 3.66282Z" fill="white"/>
<path d="M19.5076 4.58764V9.36606C19.5076 9.99804 19.7935 10.4296 20.6514 10.4296H22.9231C23.7492 10.4296 24.0669 9.99804 24.0669 9.36606V4.58764C24.0669 3.95565 23.7651 3.55488 22.9231 3.55488H20.6514C19.7935 3.55488 19.5076 3.95565 19.5076 4.58764ZM15.4883 10.0597V3.95565C15.4883 2.0597 16.8387 0.425785 19.5234 0.425785H24.0193C26.704 0.425785 28.0702 2.0597 28.0702 3.95565V10.0597C28.0702 11.9402 26.704 13.5896 24.0193 13.5896H19.5234C16.8387 13.5896 15.4883 11.9402 15.4883 10.0597Z" fill="white"/>
<path d="M45.4975 13.5742H42.2884C41.6053 13.5742 41.4147 13.4818 41.0493 12.9577L36.8395 7.02318H36.6965V13.5897H32.6773V0.472116H35.9022C36.76 0.472116 36.7283 0.549188 36.9666 0.872887C37.1254 1.1041 40.6522 5.91335 41.3829 7.054H41.4782V0.472116H45.4816L45.4975 13.5742Z" fill="white"/>
<path d="M58.6989 0.441155H63.2265C63.2265 0.441155 60.081 11.7398 59.7315 13.0038C59.5726 13.5433 59.3661 13.6203 59.0484 13.6203H53.4088C53.1069 13.6203 52.9004 13.5433 52.7574 13.0038C52.3921 11.7552 49.2466 0.441155 49.2466 0.441155H53.7742L56.1253 9.75137H56.3636L58.6989 0.441155Z" fill="white"/>
<path d="M70.5024 4.58764V9.36606C70.5024 9.99804 70.7883 10.4296 71.6462 10.4296H73.9179C74.744 10.4296 75.0617 9.99804 75.0617 9.36606V4.58764C75.0617 3.95565 74.7599 3.55488 73.9179 3.55488H71.6462C70.7883 3.55488 70.5024 3.95565 70.5024 4.58764ZM66.4832 10.0597V3.95565C66.4832 2.0597 67.8335 0.425785 70.5183 0.425785H75.0141C77.6988 0.425785 79.0651 2.0597 79.0651 3.95565V10.0597C79.0651 11.9402 77.6988 13.5896 75.0141 13.5896H70.5183C67.8335 13.5896 66.4832 11.9402 66.4832 10.0597Z" fill="white"/>
<path d="M88.7081 5.26582L91.4246 0.441155H95.9998L90.7256 9.73595V13.5741H86.7064V9.79761L81.4004 0.441155H85.9756L88.7081 5.26582Z" fill="white"/>
</svg>
