<svg width="169" height="169" viewBox="0 0 169 169" fill="none" xmlns="http://www.w3.org/2000/svg">
<path d="M49.5445 8.47809C38.2408 -2.8256 19.7816 -2.8256 8.47787 8.47809C-2.82582 19.7818 -2.82582 38.241 8.47787 49.5447L119.441 160.508C130.744 171.811 149.204 171.811 160.507 160.508C171.811 149.204 171.811 130.745 160.507 119.441L49.5445 8.47809Z" fill="url(#paint0_radial)"/>
<path d="M49.5445 8.47809C38.2408 -2.8256 19.7816 -2.8256 8.47787 8.47809C-2.82582 19.7818 -2.82582 38.241 8.47787 49.5447L119.441 160.508C130.744 171.811 149.204 171.811 160.507 160.508C171.811 149.204 171.811 130.745 160.507 119.441L49.5445 8.47809Z" fill="url(#paint1_radial)"/>
<defs>
<radialGradient id="paint0_radial" cx="0" cy="0" r="1" gradientUnits="userSpaceOnUse" gradientTransform="translate(29.5297 25.3818) rotate(44.1412) scale(171.244)">
<stop offset="0.0260417" stop-color="#3898FF"/>
<stop offset="0.124599" stop-color="#3898FF"/>
<stop offset="1" stop-color="#3898FF" stop-opacity="0"/>
</radialGradient>
<radialGradient id="paint1_radial" cx="0" cy="0" r="1" gradientUnits="userSpaceOnUse" gradientTransform="translate(151.381 150.863) rotate(-135) scale(172.324 73.2925)">
<stop stop-color="#0A1930"/>
<stop offset="1" stop-color="#0A1930" stop-opacity="0"/>
</radialGradient>
</defs>
</svg>
